<mxfile host="app.diagrams.net" modified="2021-03-08T08:53:08.881Z" agent="5.0 (Windows NT 10.0; Win64; x64) AppleWebKit/537.36 (KHTML, like Gecko) Chrome/88.0.4324.190 Safari/537.36" etag="Dtq3JW91wnKALranTWtj" version="14.4.4" type="github">
  <diagram id="k5AN_7qflOfQqhaSS5HV" name="Page-1">
    <mxGraphModel dx="1258" dy="672" grid="1" gridSize="10" guides="1" tooltips="1" connect="1" arrows="1" fold="1" page="1" pageScale="1" pageWidth="850" pageHeight="1100" math="0" shadow="0">
      <root>
        <mxCell id="0" />
        <mxCell id="1" parent="0" />
        <mxCell id="S_XTPS2nT2TUhGngpuRR-13" value="&lt;font style=&quot;font-size: 19px&quot;&gt;Project - A&lt;/font&gt;" style="whiteSpace=wrap;html=1;aspect=fixed;fontFamily=Times New Roman;fillColor=#dae8fc;strokeColor=#6c8ebf;" vertex="1" parent="1">
          <mxGeometry x="30" y="50" width="230" height="230" as="geometry" />
        </mxCell>
        <mxCell id="S_XTPS2nT2TUhGngpuRR-14" value="" style="whiteSpace=wrap;html=1;aspect=fixed;fontFamily=Times New Roman;fillColor=#d5e8d4;strokeColor=#82b366;" vertex="1" parent="1">
          <mxGeometry x="530" y="50" width="230" height="230" as="geometry" />
        </mxCell>
        <mxCell id="S_XTPS2nT2TUhGngpuRR-15" value="" style="whiteSpace=wrap;html=1;aspect=fixed;fontFamily=Times New Roman;fillColor=#fff2cc;strokeColor=#d6b656;" vertex="1" parent="1">
          <mxGeometry x="290" y="410" width="230" height="230" as="geometry" />
        </mxCell>
        <mxCell id="S_XTPS2nT2TUhGngpuRR-16" value="" style="rounded=0;whiteSpace=wrap;html=1;fontFamily=Times New Roman;direction=south;" vertex="1" parent="1">
          <mxGeometry x="70" y="70" width="150" height="160" as="geometry" />
        </mxCell>
        <mxCell id="S_XTPS2nT2TUhGngpuRR-18" value="&lt;h1&gt;Project-A&lt;/h1&gt;" style="text;html=1;strokeColor=none;fillColor=none;spacing=5;spacingTop=-20;whiteSpace=wrap;overflow=hidden;rounded=0;fontFamily=Times New Roman;align=center;" vertex="1" parent="1">
          <mxGeometry x="60" y="20" width="190" height="30" as="geometry" />
        </mxCell>
        <mxCell id="S_XTPS2nT2TUhGngpuRR-19" value="&lt;h1&gt;Project-B&lt;/h1&gt;" style="text;html=1;strokeColor=none;fillColor=none;spacing=5;spacingTop=-20;whiteSpace=wrap;overflow=hidden;rounded=0;fontFamily=Times New Roman;align=center;" vertex="1" parent="1">
          <mxGeometry x="560" y="20" width="190" height="30" as="geometry" />
        </mxCell>
        <mxCell id="S_XTPS2nT2TUhGngpuRR-28" value="" style="rounded=0;whiteSpace=wrap;html=1;fontFamily=Times New Roman;direction=south;" vertex="1" parent="1">
          <mxGeometry x="570" y="70" width="150" height="160" as="geometry" />
        </mxCell>
        <mxCell id="S_XTPS2nT2TUhGngpuRR-29" value="&lt;font style=&quot;font-size: 22px&quot;&gt;Team A&lt;/font&gt;" style="text;html=1;strokeColor=none;fillColor=none;align=center;verticalAlign=middle;whiteSpace=wrap;rounded=0;fontFamily=Times New Roman;" vertex="1" parent="1">
          <mxGeometry x="30" y="230" width="220" height="60" as="geometry" />
        </mxCell>
        <mxCell id="S_XTPS2nT2TUhGngpuRR-30" value="&lt;font style=&quot;font-size: 22px&quot;&gt;Team B&lt;/font&gt;" style="text;html=1;strokeColor=none;fillColor=none;align=center;verticalAlign=middle;whiteSpace=wrap;rounded=0;fontFamily=Times New Roman;" vertex="1" parent="1">
          <mxGeometry x="530" y="230" width="220" height="60" as="geometry" />
        </mxCell>
        <mxCell id="S_XTPS2nT2TUhGngpuRR-31" value="&lt;h1&gt;Project-C&lt;/h1&gt;" style="text;html=1;strokeColor=none;fillColor=none;spacing=5;spacingTop=-20;whiteSpace=wrap;overflow=hidden;rounded=0;fontFamily=Times New Roman;" vertex="1" parent="1">
          <mxGeometry x="350" y="640" width="190" height="40" as="geometry" />
        </mxCell>
        <mxCell id="S_XTPS2nT2TUhGngpuRR-32" value="&lt;font style=&quot;font-size: 19px&quot;&gt;REPO 1&lt;/font&gt;" style="text;html=1;strokeColor=none;fillColor=none;align=center;verticalAlign=middle;whiteSpace=wrap;rounded=0;fontFamily=Times New Roman;" vertex="1" parent="1">
          <mxGeometry x="55" y="90" width="170" height="60" as="geometry" />
        </mxCell>
        <mxCell id="S_XTPS2nT2TUhGngpuRR-33" value="&lt;font style=&quot;font-size: 19px&quot;&gt;REPO 2&lt;/font&gt;" style="text;html=1;strokeColor=none;fillColor=none;align=center;verticalAlign=middle;whiteSpace=wrap;rounded=0;fontFamily=Times New Roman;" vertex="1" parent="1">
          <mxGeometry x="560" y="90" width="170" height="60" as="geometry" />
        </mxCell>
        <mxCell id="S_XTPS2nT2TUhGngpuRR-37" value="&lt;font style=&quot;font-size: 22px&quot;&gt;Team C&lt;/font&gt;" style="text;html=1;strokeColor=none;fillColor=none;align=center;verticalAlign=middle;whiteSpace=wrap;rounded=0;fontFamily=Times New Roman;" vertex="1" parent="1">
          <mxGeometry x="295" y="590" width="220" height="60" as="geometry" />
        </mxCell>
        <mxCell id="S_XTPS2nT2TUhGngpuRR-50" value="" style="endArrow=none;dashed=1;html=1;fontFamily=Times New Roman;" edge="1" parent="1" target="S_XTPS2nT2TUhGngpuRR-16">
          <mxGeometry width="50" height="50" relative="1" as="geometry">
            <mxPoint x="145" y="510" as="sourcePoint" />
            <mxPoint x="190" y="395" as="targetPoint" />
          </mxGeometry>
        </mxCell>
        <mxCell id="S_XTPS2nT2TUhGngpuRR-54" value="" style="endArrow=none;dashed=1;html=1;fontFamily=Times New Roman;" edge="1" parent="1">
          <mxGeometry width="50" height="50" relative="1" as="geometry">
            <mxPoint x="670" y="510" as="sourcePoint" />
            <mxPoint x="670" y="230" as="targetPoint" />
          </mxGeometry>
        </mxCell>
        <mxCell id="S_XTPS2nT2TUhGngpuRR-55" value="" style="endArrow=none;dashed=1;html=1;dashPattern=1 3;strokeWidth=2;fontFamily=Times New Roman;" edge="1" parent="1">
          <mxGeometry width="50" height="50" relative="1" as="geometry">
            <mxPoint x="480" y="510" as="sourcePoint" />
            <mxPoint x="670" y="510" as="targetPoint" />
          </mxGeometry>
        </mxCell>
        <mxCell id="S_XTPS2nT2TUhGngpuRR-56" value="" style="endArrow=none;dashed=1;html=1;dashPattern=1 3;strokeWidth=2;fontFamily=Times New Roman;" edge="1" parent="1">
          <mxGeometry width="50" height="50" relative="1" as="geometry">
            <mxPoint x="150" y="510" as="sourcePoint" />
            <mxPoint x="330" y="520.5882352941176" as="targetPoint" />
          </mxGeometry>
        </mxCell>
        <mxCell id="S_XTPS2nT2TUhGngpuRR-58" value="&lt;font style=&quot;font-size: 22px&quot;&gt;Team X&lt;/font&gt;" style="text;html=1;strokeColor=#9673a6;fillColor=#e1d5e7;align=center;verticalAlign=middle;whiteSpace=wrap;rounded=0;fontFamily=Times New Roman;" vertex="1" parent="1">
          <mxGeometry x="291" y="260" width="200" height="50" as="geometry" />
        </mxCell>
        <mxCell id="S_XTPS2nT2TUhGngpuRR-64" value="&lt;font style=&quot;font-size: 17px&quot;&gt;REPO 1&lt;/font&gt;" style="rounded=0;whiteSpace=wrap;html=1;fontFamily=Times New Roman;align=center;direction=south;" vertex="1" parent="1">
          <mxGeometry x="291" y="440" width="89" height="150" as="geometry" />
        </mxCell>
        <mxCell id="S_XTPS2nT2TUhGngpuRR-65" value="&lt;font style=&quot;font-size: 17px&quot;&gt;REPO 2&lt;/font&gt;" style="rounded=0;whiteSpace=wrap;html=1;fontFamily=Times New Roman;align=center;direction=south;" vertex="1" parent="1">
          <mxGeometry x="431" y="440" width="89" height="150" as="geometry" />
        </mxCell>
        <mxCell id="S_XTPS2nT2TUhGngpuRR-68" value="" style="endArrow=classic;html=1;fontFamily=Times New Roman;exitX=0.5;exitY=1;exitDx=0;exitDy=0;entryX=0.445;entryY=-0.007;entryDx=0;entryDy=0;entryPerimeter=0;" edge="1" parent="1" source="S_XTPS2nT2TUhGngpuRR-58" target="S_XTPS2nT2TUhGngpuRR-15">
          <mxGeometry width="50" height="50" relative="1" as="geometry">
            <mxPoint x="400" y="410" as="sourcePoint" />
            <mxPoint x="450" y="360" as="targetPoint" />
          </mxGeometry>
        </mxCell>
        <mxCell id="S_XTPS2nT2TUhGngpuRR-69" value="" style="endArrow=classic;html=1;fontFamily=Times New Roman;entryX=0.203;entryY=-0.035;entryDx=0;entryDy=0;entryPerimeter=0;" edge="1" parent="1" target="S_XTPS2nT2TUhGngpuRR-30">
          <mxGeometry width="50" height="50" relative="1" as="geometry">
            <mxPoint x="490" y="285" as="sourcePoint" />
            <mxPoint x="540" y="235" as="targetPoint" />
          </mxGeometry>
        </mxCell>
        <mxCell id="S_XTPS2nT2TUhGngpuRR-70" value="" style="endArrow=classic;html=1;fontFamily=Times New Roman;entryX=0.856;entryY=-0.08;entryDx=0;entryDy=0;entryPerimeter=0;" edge="1" parent="1" target="S_XTPS2nT2TUhGngpuRR-29">
          <mxGeometry width="50" height="50" relative="1" as="geometry">
            <mxPoint x="290" y="290" as="sourcePoint" />
            <mxPoint x="260" y="230" as="targetPoint" />
          </mxGeometry>
        </mxCell>
        <mxCell id="S_XTPS2nT2TUhGngpuRR-71" value="" style="shape=flexArrow;endArrow=classic;html=1;fontFamily=Times New Roman;" edge="1" parent="1">
          <mxGeometry width="50" height="50" relative="1" as="geometry">
            <mxPoint x="491" y="310" as="sourcePoint" />
            <mxPoint x="670" y="390" as="targetPoint" />
          </mxGeometry>
        </mxCell>
        <mxCell id="S_XTPS2nT2TUhGngpuRR-72" value="" style="shape=flexArrow;endArrow=classic;html=1;fontFamily=Times New Roman;" edge="1" parent="1">
          <mxGeometry width="50" height="50" relative="1" as="geometry">
            <mxPoint x="291" y="310" as="sourcePoint" />
            <mxPoint x="150" y="420" as="targetPoint" />
          </mxGeometry>
        </mxCell>
        <mxCell id="S_XTPS2nT2TUhGngpuRR-73" value="Repo-Clone by Members of Team X" style="rounded=1;whiteSpace=wrap;html=1;fontFamily=Times New Roman;align=center;" vertex="1" parent="1">
          <mxGeometry x="20" y="380" width="120" height="60" as="geometry" />
        </mxCell>
        <mxCell id="S_XTPS2nT2TUhGngpuRR-74" value="Repo-Clone by Members of Team X" style="rounded=1;whiteSpace=wrap;html=1;fontFamily=Times New Roman;align=center;" vertex="1" parent="1">
          <mxGeometry x="670" y="350" width="120" height="60" as="geometry" />
        </mxCell>
      </root>
    </mxGraphModel>
  </diagram>
</mxfile>
